PathFileType	4	(X/Y/Z)	/Users/mathieubourgeois/Desktop/Analyse/Traitement/Sujet_03/Data/Transformed_Sujet_03_velo_100.trc
DataRate	CameraRate	NumFrames	NumMarkers	Units	OrigDataRate	OrigDataStartFrame	OrigNumFrames
120.000000	120.000000	5	36	mm	120.000000	945	1890
Frame#	Time	RFHD			LFHD			RBHD			LBHD			C7			CLAV			RSHO			LSHO			STRN			T10			RBWT			LBWT			RFWT			LFWT			RKNI			LKNI			RKNE			LKNE			LANI			RANI			LANE			RANE			LTOE			RTOE			LHEE			RHEE			RHUM			LHUM			RRAD			LRAD			RWRA			RWRB			LWRA			LWRB			LCAR			RCAR			
		X1	Y1	Z1	X2	Y2	Z2	X3	Y3	Z3	X4	Y4	Z4	X5	Y5	Z5	X6	Y6	Z6	X7	Y7	Z7	X8	Y8	Z8	X9	Y9	Z9	X10	Y10	Z10	X11	Y11	Z11	X12	Y12	Z12	X13	Y13	Z13	X14	Y14	Z14	X15	Y15	Z15	X16	Y16	Z16	X17	Y17	Z17	X18	Y18	Z18	X19	Y19	Z19	X20	Y20	Z20	X21	Y21	Z21	X22	Y22	Z22	X23	Y23	Z23	X24	Y24	Z24	X25	Y25	Z25	X26	Y26	Z26	X27	Y27	Z27	X28	Y28	Z28	X29	Y29	Z29	X30	Y30	Z30	X31	Y31	Z31	X32	Y32	Z32	X33	Y33	Z33	X34	Y34	Z34	X35	Y35	Z35	X36	Y36	Z36	

946	7.875	144.8360290527344	1564.381469726562	95.08300018310538	133.3695526123047	1558.648681640625	-58.59112167358406	35.27114105224608	1637.481811523438	103.8043899536132	14.22916603088379	1647.982299804688	-43.8199462890626	-110.5242385864258	1554.04052734375	27.92649459838856	-71.37554931640625	1398.9873046875	27.44302940368643	-52.13352584838869	1493.571533203125	197.6306152343749	-73.8030548095703	1513.317260742188	-152.8591308593751	-168.9193725585938	1258.619384765625	26.3109245300292	-325.412109375	1451.42041015625	27.11978530883776	-525.588134765625	1269.618530273438	109.0876617431639	-531.573486328125	1265.495849609375	-15.03110027313247	-376.79443359375	1192.789672851562	169.328887939453	-384.1249694824219	1180.465087890625	-76.52784729003918	-138.1825714111328	762.7703247070312	119.3973007202148	-79.93171691894531	792.7184448242188	-40.69932174682623	-136.587631225586	806.1568603515625	232.7700958251952	-88.19340515136717	841.794921875	-149.2386169433594	-157.8253173828125	422.9171447753906	-66.55113983154301	-398.9961853027344	497.3124694824219	122.5743789672851	-165.8116302490234	399.3237915039062	-155.6375274658204	-425.22119140625	492.2174987792969	211.117706298828	21.46761322021485	332.72998046875	-94.85546112060548	-310.9922790527344	315.9413146972656	151.4981994628906	-237.8034973144531	373.7750854492188	-119.8494873046876	-499.6572875976562	510.2203063964844	169.0926055908202	6.569823265075655	1191.274291992188	229.307876586914	5.104779720306414	1201.2978515625	-145.6286163330079	58.83619308471676	1214.3544921875	287.5502624511718	52.28252792358401	1228.599487304688	-208.6456451416016	265.4679870605469	1045.253173828125	209.2310791015625	245.2791595458984	1030.21142578125	288.3901977539062	244.5101623535157	1063.305541992188	-130.8161163330078	216.5247192382813	1039.02880859375	-203.5174407958985	311.8133544921875	1026.702514648438	-229.5335845947266	347.4136962890624	1019.374877929688	300.0086059570312	
947	7.883333333333333	144.7213134765625	1564.334594726562	96.26897430419913	133.2223052978516	1558.787841796875	-57.35376358032234	35.06079483032225	1637.342529296875	105.1318893432616	14.01628017425538	1648.003173828125	-42.49234008789072	-110.7678298950195	1553.843872070312	29.06226158142079	-71.44448852539062	1398.793579101562	28.48857688903799	-52.80544281005862	1493.285522460938	198.8744812011718	-73.88446807861327	1513.1572265625	-151.9118804931641	-168.7776336669922	1258.347778320312	27.29813194274892	-325.5751953125	1451.027709960938	27.3584003448485	-525.6348876953125	1268.65185546875	107.455238342285	-531.283935546875	1264.609741210938	-15.4345560073854	-376.7726745605469	1192.700561523438	169.273956298828	-383.643310546875	1179.354614257812	-76.70994567871105	-131.8130798339844	772.6806640625	120.5056381225585	-88.95846557617188	778.2088623046875	-40.13757324218756	-128.1175689697266	815.6604614257812	233.6092529296874	-96.19029998779295	827.6842041015625	-148.4048919677735	-160.7178802490234	406.900146484375	-67.50609588623051	-396.0355529785156	513.6016845703125	122.907356262207	-167.4549255371093	384.09521484375	-156.6997680664063	-421.9367065429688	508.5370178222656	211.4952392578124	19.4502296447754	315.7014465332031	-95.09380340576173	-309.1912536621094	332.1466674804688	151.9106140136718	-239.6144561767578	358.8629760742188	-121.5554733276368	-496.7208251953125	527.28515625	169.5877075195312	6.336789608001681	1190.989990234375	229.7578124999999	4.94134998321535	1201.066528320312	-145.3602600097657	58.59931945800778	1214.056762695312	287.9648742675781	52.05215454101565	1228.466796875	-208.4094696044923	265.4138793945312	1045.351318359375	209.1307983398437	245.2796783447265	1030.212158203125	288.2794799804688	244.470458984375	1063.256591796875	-130.9577026367188	216.4591979980469	1039.015625	-203.6878814697266	311.737548828125	1026.697631835938	-229.7159576416016	347.4170837402343	1019.446472167969	299.7982482910156	
948	7.891666666666667	144.6668243408203	1564.369262695312	97.50528717041007	133.1439056396484	1559.000122070312	-56.12763214111336	34.93278121948241	1637.263671875	106.4873428344726	13.86550331115723	1648.089111328125	-41.15297698974619	-110.889289855957	1553.64697265625	30.27936172485341	-71.42045593261719	1398.641235351562	29.66707420349112	-53.36853408813479	1493.027465820312	200.1565399169921	-73.90360260009764	1513.026489257812	-150.9997711181641	-168.7052307128906	1258.092529296875	28.36222267150869	-325.613525390625	1450.712158203125	27.58521080017077	-525.6598510742188	1268.17724609375	106.9706115722655	-530.8820190429688	1263.80126953125	-15.86569499969497	-376.6835632324219	1192.710815429688	169.2764587402342	-383.1589660644531	1178.357788085938	-76.70713043212902	-123.3207931518555	783.7275390625	121.1549606323242	-98.46830749511719	764.0892944335938	-39.53152084350592	-119.9560852050782	825.5426635742188	234.462905883789	-104.6358795166015	814.0538940429688	-147.5452117919922	-164.2315979003906	392.0543518066406	-67.98873138427739	-392.0531311035156	529.5066528320312	123.1572189331054	-170.2437286376953	370.0160522460938	-156.9412689208985	-417.7426452636719	524.3995361328125	211.821548461914	16.45209312438966	299.3532409667969	-95.1399612426758	-305.8426818847656	348.3280334472656	152.2146606445312	-244.2919311523437	345.9012756347656	-128.4116516113282	-492.9119567871094	543.666015625	170.0648956298827	6.109570980071993	1190.742065429688	230.1957244873046	6.754961013793963	1199.444213867188	-141.914520263672	58.35784149169918	1213.7158203125	288.4208679199218	51.75164031982425	1228.26171875	-208.2067108154298	265.3715515136719	1045.465698242188	209.0549163818359	245.2745361328125	1030.194091796875	288.1676940917969	244.39892578125	1063.233276367188	-131.1210632324219	216.3583984375	1038.9716796875	-203.8085632324219	311.6298217773438	1026.674438476562	-229.8957214355469	347.4313049316406	1019.504028320312	299.5852966308594	
949	7.899999999999999	144.6885375976562	1564.489501953125	98.7874221801757	133.1291351318359	1559.274658203125	-54.89031600952156	34.9167137145996	1637.254760742188	107.8882751464843	13.78986358642579	1648.219482421875	-39.7382698059083	-110.865966796875	1553.57568359375	31.49741935729969	-71.23307800292969	1398.518188476562	30.84347343444815	-53.83775329589846	1492.809326171875	201.4833221435546	-73.82884216308592	1512.924560546875	-150.1080932617188	-168.4922027587891	1257.916870117188	29.43064880371084	-325.4980773925781	1450.45849609375	27.76833915710436	-525.569580078125	1267.84375	106.4904403686522	-530.3787841796875	1263.115478515625	-16.27208328247085	-376.5263977050781	1192.826782226562	169.1922912597655	-382.5401916503906	1177.481811523438	-76.70891571044933	-113.092399597168	795.4801025390625	121.9993362426757	-107.9411315917969	750.8828125	-39.12430572509771	-111.9922103881836	835.7888793945312	235.2676849365234	-113.4723434448242	801.1533203125	-146.7071380615235	-166.8212890625	379.2887268066406	-68.89491271972661	-387.5602416992188	545.353271484375	123.4096755981445	-175.0030517578125	356.27001953125	-157.3858947753907	-412.8325805664062	539.6599731445312	212.0048828124999	10.81290912628175	282.7833557128906	-95.52023315429689	-300.9616088867188	364.3576049804688	152.5522766113281	-247.4031982421875	331.4833679199219	-123.1632995605469	-488.4045715332031	558.8968505859375	170.5138702392577	5.868363857269259	1190.50341796875	230.5626678466796	6.563600540161151	1199.096435546875	-141.6700286865235	58.06903839111325	1213.327514648438	288.9003601074218	51.38233184814456	1228.069946289062	-208.0442962646485	265.2985534667969	1045.580688476562	209.016616821289	245.2364501953125	1030.161865234375	288.1141967773438	244.3325653076172	1063.227416992188	-131.2676544189453	216.2498474121094	1038.8779296875	-203.8853759765625	311.5133666992188	1026.64306640625	-230.0638885498047	347.4133911132812	1019.570983886719	299.4617614746094	
950	7.908333333333333	144.9163970947266	1564.704956054688	99.98791503906241	133.2487487792969	1559.630126953125	-53.65978622436531	35.03804397583006	1637.330078125	109.2350616455077	13.79614353179932	1648.398803710938	-38.32917785644541	-110.731803894043	1553.512451171875	32.71805953979482	-70.96759796142578	1398.48876953125	32.07332992553702	-54.17852783203127	1492.672485351562	202.8360748291015	-73.60450744628905	1512.870727539062	-149.2282257080079	-168.2207946777344	1257.831787109375	30.54795455932607	-325.2550048828125	1450.250122070312	27.99282073974597	-525.3637084960938	1267.641357421875	106.0647964477538	-529.7764892578125	1262.556274414062	-16.69959449768081	-376.3124084472656	1193.107666015625	169.1755218505858	-381.5040283203125	1175.841186523438	-76.91231536865246	-104.9153594970703	807.2459106445312	122.5882186889648	-115.3002700805664	739.2786865234375	-39.56052398681646	-104.303581237793	846.35595703125	236.0703887939453	-122.6522979736328	789.1127319335938	-145.8345642089845	-172.5669555664062	366.2249450683594	-69.01021575927739	-382.010986328125	560.1098022460938	123.4039001464843	-181.0462646484375	343.3490905761719	-157.6544036865235	-407.2503967285156	554.1503295898438	212.0182189941405	4.393550395965588	267.1463012695312	-95.78122711181642	-294.6158447265625	380.007568359375	152.9545745849609	-251.1446838378906	318.3401794433594	-121.8717269897461	-483.2186889648438	573.2234497070312	170.4845886230468	5.643482208251925	1190.286376953125	230.918960571289	4.316487312316912	1200.171752929688	-144.764862060547	57.74326705932614	1212.987060546875	289.4358825683593	51.05316925048831	1227.89013671875	-207.9367065429688	265.2320556640625	1045.672119140625	209.0414428710937	245.1705169677734	1030.097290039062	288.12646484375	244.2157287597657	1063.232299804688	-131.3800048828125	216.1253356933594	1038.761962890625	-203.9511413574219	311.3990478515625	1026.621948242188	-230.1787261962891	347.3676452636718	1019.610534667969	299.4265747070312	
